<svg width="28" height="25" viewBox="0 0 28 25" fill="none" xmlns="http://www.w3.org/2000/svg">
<path d="M14.3402 23.4887C13.8896 23.645 13.3906 23.645 12.94 23.4887C9.42777 22.2709 6.40753 20.1258 4.27642 17.3354C2.14532 14.5451 1.00312 11.2401 1 7.85502V2.74873C1 2.28494 1.20488 1.84014 1.56957 1.51219C1.93426 1.18424 2.42888 1 2.94463 1H24.3356C24.8513 1 25.3459 1.18424 25.7106 1.51219C26.0753 1.84014 26.2802 2.28494 26.2802 2.74873V7.85502C26.2771 11.2401 25.1349 14.5451 23.0038 17.3354C20.8727 20.1258 17.8524 22.2709 14.3402 23.4887Z" stroke="#267FFF" stroke-width="2" stroke-linecap="round" stroke-linejoin="round"/>
<path d="M13.64 11.4923C15.251 11.4923 16.557 10.3179 16.557 8.86919C16.557 7.42049 15.251 6.24609 13.64 6.24609C12.029 6.24609 10.7231 7.42049 10.7231 8.86919C10.7231 10.3179 12.029 11.4923 13.64 11.4923Z" stroke="#267FFF" stroke-width="2" stroke-linecap="round" stroke-linejoin="round"/>
<path d="M13.6401 15.8643V11.4924" stroke="#267FFF" stroke-width="2" stroke-linecap="round" stroke-linejoin="round"/>
</svg>
