<svg width="48" height="48" viewBox="0 0 48 48" fill="none" xmlns="http://www.w3.org/2000/svg">
<g filter="url(#filter0_d_602_2)">
<circle cx="24" cy="20" r="20" fill="white"/>
</g>
<g clip-path="url(#clip0_602_2)">
<path d="M38.6304 20.0028C38.6837 28.028 32.2213 34.577 24.1961 34.6304C16.1708 34.6838 9.62187 28.2213 9.5685 20.1961C9.51513 12.1709 15.9776 5.6219 24.0028 5.56852C32.028 5.51515 38.577 11.9776 38.6304 20.0028ZM30.3169 17.9879C30.5933 16.0525 29.1141 15.0229 27.0963 14.3429L27.732 11.7193L26.1348 11.3326L25.516 13.887C25.0962 13.7854 24.665 13.6897 24.2365 13.595L24.8598 11.0238L23.2636 10.637L22.6275 13.2597C22.28 13.1829 21.9389 13.1071 21.6078 13.0271L21.6095 13.0189L19.4069 12.4845L18.9941 14.1902C18.9941 14.1902 20.1789 14.4534 20.1541 14.4703C20.8009 14.6272 20.9205 15.0538 20.9032 15.3926L20.1791 18.3814C20.2237 18.3925 20.2815 18.4084 20.3452 18.4334C20.292 18.4206 20.2351 18.4064 20.1764 18.3928L19.1615 22.5796C19.0838 22.7763 18.8855 23.0719 18.4333 22.9632C18.4494 22.9862 17.2725 22.6816 17.2725 22.6816L16.493 24.5119L18.5715 25.0153C18.9581 25.1094 19.3371 25.2082 19.7101 25.301L19.0678 27.9545L20.6631 28.3413L21.2992 25.7159C21.7223 25.8276 22.1466 25.9346 22.5721 26.0371L21.9382 28.6502L23.5353 29.0369L24.1776 26.3884C26.8999 26.8848 28.9431 26.6636 29.7873 24.199C30.4677 22.2146 29.7321 21.0774 28.2966 20.3422C29.3367 20.0951 30.117 19.4048 30.3169 17.9879ZM26.7078 23.1202C26.2282 25.1033 22.8873 24.0552 21.8046 23.794L22.6569 20.2786C23.7395 20.5411 27.209 21.052 26.7078 23.1202ZM27.1668 17.9803C26.7292 19.7842 23.9483 18.8877 23.0467 18.6694L23.8193 15.4809C24.721 15.6992 27.6225 16.0986 27.1668 17.9803Z" fill="black"/>
</g>
<defs>
<filter id="filter0_d_602_2" x="0" y="0" width="48" height="48" filterUnits="userSpaceOnUse" color-interpolation-filters="sRGB">
<feFlood flood-opacity="0" result="BackgroundImageFix"/>
<feColorMatrix in="SourceAlpha" type="matrix" values="0 0 0 0 0 0 0 0 0 0 0 0 0 0 0 0 0 0 127 0" result="hardAlpha"/>
<feOffset dy="4"/>
<feGaussianBlur stdDeviation="2"/>
<feComposite in2="hardAlpha" operator="out"/>
<feColorMatrix type="matrix" values="0 0 0 0 0 0 0 0 0 0 0 0 0 0 0 0 0 0 0.25 0"/>
<feBlend mode="normal" in2="BackgroundImageFix" result="effect1_dropShadow_602_2"/>
<feBlend mode="normal" in="SourceGraphic" in2="effect1_dropShadow_602_2" result="shape"/>
</filter>
<clipPath id="clip0_602_2">
<rect width="30" height="30" fill="white" transform="translate(9 5.19952) rotate(-0.381038)"/>
</clipPath>
</defs>
</svg>
