<svg width="31" height="23" viewBox="0 0 31 23" fill="none" xmlns="http://www.w3.org/2000/svg">
<path d="M3.05106 22.6059C2.21202 22.6059 1.4935 22.329 0.895488 21.7751C0.297481 21.2213 -0.00101443 20.5563 2.59003e-06 19.7802V2.82574C2.59003e-06 2.04866 0.299006 1.3832 0.897014 0.829356C1.49502 0.275512 2.21304 -0.000939514 3.05106 2.39876e-06H27.4595C28.2986 2.39876e-06 29.0171 0.276924 29.6151 0.830769C30.2131 1.38461 30.5116 2.0496 30.5106 2.82574V19.7802C30.5106 20.5572 30.2116 21.2227 29.6136 21.7765C29.0156 22.3304 28.2976 22.6068 27.4595 22.6059H3.05106ZM15.2553 12.7158L3.05106 5.65148V19.7802H27.4595V5.65148L15.2553 12.7158ZM15.2553 9.89008L27.4595 2.82574H3.05106L15.2553 9.89008ZM3.05106 5.65148V2.82574V19.7802V5.65148Z" fill="#267FFF"/>
</svg>
