<svg width="64" height="60" viewBox="0 0 64 60" fill="none" xmlns="http://www.w3.org/2000/svg">
<path d="M31.6875 0C14.2155 0 0 13.4205 0 29.9154C0 46.4103 14.2155 59.8308 31.6875 59.8308C49.1595 59.8308 63.375 46.4103 63.375 29.9154C63.375 13.4205 49.1595 0 31.6875 0ZM31.6875 4.60237C46.5246 4.60237 58.5 15.9081 58.5 29.9154C58.5 43.9227 46.5246 55.2285 31.6875 55.2285C16.8504 55.2285 4.875 43.9227 4.875 29.9154C4.875 15.9081 16.8504 4.60237 31.6875 4.60237ZM29.25 16.1083V27.6142H17.0625V32.2166H29.25V43.7225H34.125V32.2166H46.3125V27.6142H34.125V16.1083H29.25Z" fill="black"/>
</svg>
